<mxfile host="app.diagrams.net" modified="2022-02-03T19:59:40.565Z" agent="5.0 (Macintosh; Intel Mac OS X 10_15_7) AppleWebKit/605.1.15 (KHTML, like Gecko) Version/15.0 Safari/605.1.15" etag="PXP-zb6qfOJ9yVafXsjL" version="15.5.5" type="github">
  <diagram id="C5RBs43oDa-KdzZeNtuy" name="Page-1">
    <mxGraphModel dx="786" dy="537" grid="1" gridSize="10" guides="1" tooltips="1" connect="1" arrows="1" fold="1" page="1" pageScale="1" pageWidth="827" pageHeight="1169" math="0" shadow="0">
      <root>
        <mxCell id="WIyWlLk6GJQsqaUBKTNV-0" />
        <mxCell id="WIyWlLk6GJQsqaUBKTNV-1" parent="WIyWlLk6GJQsqaUBKTNV-0" />
        <mxCell id="H9ng9li3I8Wv7af7aO0H-35" style="edgeStyle=orthogonalEdgeStyle;rounded=0;orthogonalLoop=1;jettySize=auto;html=1;entryX=0.02;entryY=0.453;entryDx=0;entryDy=0;entryPerimeter=0;" edge="1" parent="WIyWlLk6GJQsqaUBKTNV-1" source="H9ng9li3I8Wv7af7aO0H-0" target="H9ng9li3I8Wv7af7aO0H-1">
          <mxGeometry relative="1" as="geometry" />
        </mxCell>
        <mxCell id="H9ng9li3I8Wv7af7aO0H-0" value="customers&lt;br&gt;&amp;amp;tradesman" style="shape=umlActor;verticalLabelPosition=bottom;verticalAlign=top;html=1;outlineConnect=0;" vertex="1" parent="WIyWlLk6GJQsqaUBKTNV-1">
          <mxGeometry x="37" y="206" width="30" height="60" as="geometry" />
        </mxCell>
        <mxCell id="H9ng9li3I8Wv7af7aO0H-24" style="edgeStyle=orthogonalEdgeStyle;rounded=0;orthogonalLoop=1;jettySize=auto;html=1;entryX=0;entryY=0.5;entryDx=0;entryDy=0;" edge="1" parent="WIyWlLk6GJQsqaUBKTNV-1" source="H9ng9li3I8Wv7af7aO0H-1" target="H9ng9li3I8Wv7af7aO0H-3">
          <mxGeometry relative="1" as="geometry" />
        </mxCell>
        <mxCell id="H9ng9li3I8Wv7af7aO0H-1" value="&lt;h3&gt;Browser&lt;/h3&gt;" style="whiteSpace=wrap;html=1;aspect=fixed;fillColor=#3399FF;spacingBottom=41;" vertex="1" parent="WIyWlLk6GJQsqaUBKTNV-1">
          <mxGeometry x="114" y="200" width="80" height="80" as="geometry" />
        </mxCell>
        <mxCell id="H9ng9li3I8Wv7af7aO0H-2" value="Security&lt;br&gt;Validation" style="rounded=0;whiteSpace=wrap;html=1;" vertex="1" parent="WIyWlLk6GJQsqaUBKTNV-1">
          <mxGeometry x="119" y="230" width="70" height="40" as="geometry" />
        </mxCell>
        <mxCell id="H9ng9li3I8Wv7af7aO0H-25" style="edgeStyle=orthogonalEdgeStyle;rounded=0;orthogonalLoop=1;jettySize=auto;html=1;exitX=1;exitY=0.5;exitDx=0;exitDy=0;entryX=0;entryY=0.5;entryDx=0;entryDy=0;" edge="1" parent="WIyWlLk6GJQsqaUBKTNV-1" source="H9ng9li3I8Wv7af7aO0H-3" target="H9ng9li3I8Wv7af7aO0H-5">
          <mxGeometry relative="1" as="geometry" />
        </mxCell>
        <mxCell id="H9ng9li3I8Wv7af7aO0H-3" value="&lt;h3&gt;Services&lt;/h3&gt;" style="whiteSpace=wrap;html=1;aspect=fixed;fillColor=#3399FF;spacingBottom=41;" vertex="1" parent="WIyWlLk6GJQsqaUBKTNV-1">
          <mxGeometry x="227" y="200" width="80" height="80" as="geometry" />
        </mxCell>
        <mxCell id="H9ng9li3I8Wv7af7aO0H-4" value="Webservies" style="rounded=0;whiteSpace=wrap;html=1;" vertex="1" parent="WIyWlLk6GJQsqaUBKTNV-1">
          <mxGeometry x="232" y="230" width="70" height="40" as="geometry" />
        </mxCell>
        <mxCell id="H9ng9li3I8Wv7af7aO0H-26" style="edgeStyle=orthogonalEdgeStyle;rounded=0;orthogonalLoop=1;jettySize=auto;html=1;entryX=0.5;entryY=1;entryDx=0;entryDy=0;" edge="1" parent="WIyWlLk6GJQsqaUBKTNV-1" source="H9ng9li3I8Wv7af7aO0H-5" target="H9ng9li3I8Wv7af7aO0H-11">
          <mxGeometry relative="1" as="geometry" />
        </mxCell>
        <mxCell id="H9ng9li3I8Wv7af7aO0H-29" style="edgeStyle=orthogonalEdgeStyle;rounded=0;orthogonalLoop=1;jettySize=auto;html=1;entryX=0.366;entryY=1.008;entryDx=0;entryDy=0;entryPerimeter=0;" edge="1" parent="WIyWlLk6GJQsqaUBKTNV-1" source="H9ng9li3I8Wv7af7aO0H-5" target="H9ng9li3I8Wv7af7aO0H-20">
          <mxGeometry relative="1" as="geometry" />
        </mxCell>
        <mxCell id="H9ng9li3I8Wv7af7aO0H-34" style="edgeStyle=orthogonalEdgeStyle;rounded=0;orthogonalLoop=1;jettySize=auto;html=1;entryX=0;entryY=0.5;entryDx=0;entryDy=0;" edge="1" parent="WIyWlLk6GJQsqaUBKTNV-1" source="H9ng9li3I8Wv7af7aO0H-5" target="H9ng9li3I8Wv7af7aO0H-16">
          <mxGeometry relative="1" as="geometry" />
        </mxCell>
        <mxCell id="H9ng9li3I8Wv7af7aO0H-5" value="&lt;h3&gt;Information publish&amp;amp;display&amp;amp;search&lt;/h3&gt;" style="whiteSpace=wrap;html=1;fillColor=#3399FF;spacingBottom=45;" vertex="1" parent="WIyWlLk6GJQsqaUBKTNV-1">
          <mxGeometry x="340" y="200" width="210" height="80" as="geometry" />
        </mxCell>
        <mxCell id="H9ng9li3I8Wv7af7aO0H-8" value="&lt;h3&gt;DB&lt;/h3&gt;&lt;div&gt;&lt;br&gt;&lt;/div&gt;" style="whiteSpace=wrap;html=1;aspect=fixed;fillColor=#3399FF;spacingBottom=41;" vertex="1" parent="WIyWlLk6GJQsqaUBKTNV-1">
          <mxGeometry x="407" y="381" width="80" height="80" as="geometry" />
        </mxCell>
        <mxCell id="H9ng9li3I8Wv7af7aO0H-9" value="Firebase" style="rounded=0;whiteSpace=wrap;html=1;" vertex="1" parent="WIyWlLk6GJQsqaUBKTNV-1">
          <mxGeometry x="412" y="407" width="70" height="20" as="geometry" />
        </mxCell>
        <mxCell id="H9ng9li3I8Wv7af7aO0H-10" value="" style="shape=cylinder3;whiteSpace=wrap;html=1;boundedLbl=1;backgroundOutline=1;size=3.857142857142833;labelBackgroundColor=#FFFFFF;fillColor=#B3B3B3;" vertex="1" parent="WIyWlLk6GJQsqaUBKTNV-1">
          <mxGeometry x="413" y="433" width="67" height="20" as="geometry" />
        </mxCell>
        <mxCell id="H9ng9li3I8Wv7af7aO0H-11" value="&lt;h3&gt;Google Map&lt;/h3&gt;" style="whiteSpace=wrap;html=1;fillColor=#3399FF;spacingBottom=41;" vertex="1" parent="WIyWlLk6GJQsqaUBKTNV-1">
          <mxGeometry x="312" y="30" width="102" height="80" as="geometry" />
        </mxCell>
        <mxCell id="H9ng9li3I8Wv7af7aO0H-16" value="&lt;h3&gt;Payment system&lt;/h3&gt;" style="whiteSpace=wrap;html=1;fillColor=#3399FF;spacingBottom=41;" vertex="1" parent="WIyWlLk6GJQsqaUBKTNV-1">
          <mxGeometry x="640" y="200" width="117" height="80" as="geometry" />
        </mxCell>
        <mxCell id="H9ng9li3I8Wv7af7aO0H-20" value="&lt;h3&gt;Chat system&lt;/h3&gt;" style="whiteSpace=wrap;html=1;fillColor=#3399FF;spacingBottom=41;" vertex="1" parent="WIyWlLk6GJQsqaUBKTNV-1">
          <mxGeometry x="502" y="31" width="102" height="80" as="geometry" />
        </mxCell>
        <mxCell id="H9ng9li3I8Wv7af7aO0H-27" style="edgeStyle=orthogonalEdgeStyle;rounded=0;orthogonalLoop=1;jettySize=auto;html=1;entryX=0.5;entryY=0;entryDx=0;entryDy=0;" edge="1" parent="WIyWlLk6GJQsqaUBKTNV-1" source="H9ng9li3I8Wv7af7aO0H-22" target="H9ng9li3I8Wv7af7aO0H-8">
          <mxGeometry relative="1" as="geometry" />
        </mxCell>
        <mxCell id="H9ng9li3I8Wv7af7aO0H-22" value="" style="html=1;shadow=0;dashed=0;align=center;verticalAlign=middle;shape=mxgraph.arrows2.quadArrow;dy=3.5;dx=10.83;notch=24;arrowHead=5.57;labelBackgroundColor=#FFFFFF;fillColor=#FFFFFF;" vertex="1" parent="WIyWlLk6GJQsqaUBKTNV-1">
          <mxGeometry x="397" y="237" width="100" height="39" as="geometry" />
        </mxCell>
        <mxCell id="H9ng9li3I8Wv7af7aO0H-30" value="" style="ellipse;shape=cloud;whiteSpace=wrap;html=1;labelBackgroundColor=#FFFFFF;fillColor=#FFFFFF;" vertex="1" parent="WIyWlLk6GJQsqaUBKTNV-1">
          <mxGeometry x="313" y="56" width="90" height="50" as="geometry" />
        </mxCell>
        <mxCell id="H9ng9li3I8Wv7af7aO0H-31" value="" style="ellipse;shape=cloud;whiteSpace=wrap;html=1;labelBackgroundColor=#FFFFFF;fillColor=#FFFFFF;" vertex="1" parent="WIyWlLk6GJQsqaUBKTNV-1">
          <mxGeometry x="507" y="56" width="90" height="50" as="geometry" />
        </mxCell>
        <mxCell id="H9ng9li3I8Wv7af7aO0H-32" value="" style="ellipse;shape=cloud;whiteSpace=wrap;html=1;labelBackgroundColor=#FFFFFF;fillColor=#FFFFFF;" vertex="1" parent="WIyWlLk6GJQsqaUBKTNV-1">
          <mxGeometry x="653.5" y="225" width="90" height="50" as="geometry" />
        </mxCell>
      </root>
    </mxGraphModel>
  </diagram>
</mxfile>
